<svg width="32" height="32" viewBox="0 0 32 32" xmlns="http://www.w3.org/2000/svg">
  <defs>
    <linearGradient id="primaryGradient" x1="0%" y1="0%" x2="100%" y2="100%">
      <stop offset="0%" style="stop-color:#4a6bff;stop-opacity:1" />
      <stop offset="100%" style="stop-color:#667eea;stop-opacity:1" />
    </linearGradient>
    
    <linearGradient id="brainGradient" x1="0%" y1="0%" x2="100%" y2="100%">
      <stop offset="0%" style="stop-color:#28a745;stop-opacity:1" />
      <stop offset="100%" style="stop-color:#20c997;stop-opacity:1" />
    </linearGradient>
  </defs>
  
  <!-- Background circle -->
  <circle cx="16" cy="16" r="15" fill="url(#primaryGradient)" opacity="0.1"/>
  
  <!-- Brain icon -->
  <g transform="translate(8, 8)">
    <path d="M5 8 Q8 3 12 8 Q14 12 12 17 Q8 22 5 17 Q3 12 5 8 Z" 
          fill="url(#brainGradient)" stroke="#fff" stroke-width="0.5"/>
    <path d="M7 5 Q10 3 15 5 Q17 10 15 15 Q10 20 7 15 Q5 10 7 5 Z" 
          fill="url(#brainGradient)" stroke="#fff" stroke-width="0.5"/>
    
    <!-- Neural connections -->
    <circle cx="6" cy="10" r="0.8" fill="#fff"/>
    <circle cx="9" cy="8" r="0.8" fill="#fff"/>
    <circle cx="12" cy="12" r="0.8" fill="#fff"/>
    <circle cx="10" cy="15" r="0.8" fill="#fff"/>
  </g>
</svg> 